<svg width="18" height="18" viewBox="0 0 18 18" fill="none" xmlns="http://www.w3.org/2000/svg">
<path d="M8.75008 0.666504C4.15008 0.666504 0.416748 4.39984 0.416748 8.99984C0.416748 13.5998 4.15008 17.3332 8.75008 17.3332C13.3501 17.3332 17.0834 13.5998 17.0834 8.99984C17.0834 4.39984 13.3501 0.666504 8.75008 0.666504ZM2.08341 8.99984C2.08341 5.3165 5.06675 2.33317 8.75008 2.33317C9.88769 2.33317 10.9572 2.61904 11.8917 3.12381C12.4194 3.40879 12.4601 4.11478 12.0361 4.5388L4.28904 12.2859C3.86502 12.7099 3.15903 12.6691 2.87405 12.1415C2.36928 11.207 2.08341 10.1374 2.08341 8.99984ZM8.75008 15.6665C7.61247 15.6665 6.54293 15.3806 5.60841 14.8759C5.08081 14.5909 5.04002 13.8849 5.46404 13.4609L13.2111 5.7138C13.6351 5.28978 14.3411 5.33056 14.6261 5.85817C15.1309 6.79269 15.4167 7.86223 15.4167 8.99984C15.4167 12.6832 12.4334 15.6665 8.75008 15.6665Z" fill="#FF2222"/>
</svg>
