<svg width="16" height="17" viewBox="0 0 16 17" fill="none" xmlns="http://www.w3.org/2000/svg">
<path d="M11 2.5C10.2433 2.5 9.50635 2.72982 8.88372 3.12653C8.36433 3.45746 7.63569 3.45746 7.1163 3.12653C6.49367 2.72982 5.75677 2.5 5.00001 2.5C2.94668 2.5 1.33334 4.11333 1.33334 6.16667C1.33334 8.68667 3.60001 10.74 7.03334 13.86L7.32708 14.1254C7.70889 14.4703 8.29014 14.4692 8.67064 14.1228L8.96668 13.8533C12.4 10.74 14.6667 8.68667 14.6667 6.16667C14.6667 4.11333 13.0533 2.5 11 2.5ZM8.06668 12.8667C8.02986 12.9035 7.97016 12.9035 7.93334 12.8667C4.76001 9.99333 2.66668 8.09333 2.66668 6.16667C2.66668 4.83333 3.66668 3.83333 5.00001 3.83333C5.8104 3.83333 6.60418 4.24455 7.07642 4.86699C7.30271 5.16526 7.62683 5.40667 8.00122 5.40667C8.37772 5.40667 8.70311 5.16245 8.93042 4.86231C9.39983 4.24249 10.1917 3.83333 11 3.83333C12.3333 3.83333 13.3333 4.83333 13.3333 6.16667C13.3333 8.09333 11.24 9.99333 8.06668 12.8667Z" fill="#A04D31"/>
</svg>
