<svg width="21" height="20" viewBox="0 0 21 20" fill="none" xmlns="http://www.w3.org/2000/svg">
<path d="M17.1667 1.66675H3.83335C2.91669 1.66675 2.16669 2.41675 2.16669 3.33341V15.9192C2.16669 16.8101 3.24383 17.2563 3.87379 16.6263L5.20713 15.293C5.39466 15.1054 5.64902 15.0001 5.91423 15.0001H17.1667C18.0834 15.0001 18.8334 14.2501 18.8334 13.3334V3.33341C18.8334 2.41675 18.0834 1.66675 17.1667 1.66675ZM17.1667 12.3334C17.1667 12.8857 16.719 13.3334 16.1667 13.3334H5.8452C5.62418 13.3334 5.41222 13.4212 5.25594 13.5775C4.73097 14.1025 3.83335 13.7307 3.83335 12.9882V4.33342C3.83335 3.78113 4.28107 3.33341 4.83335 3.33341H16.1667C16.719 3.33341 17.1667 3.78113 17.1667 4.33341V12.3334Z" fill="#F85706"/>
</svg>
