<svg width="34" height="31" viewBox="0 0 34 31" fill="none" xmlns="http://www.w3.org/2000/svg">
<path d="M4.857 4.53571V0.25H7.71415V4.53571H11.9999V7.39286H7.71415V11.6786H4.857V7.39286H0.571289V4.53571H4.857ZM9.14272 13.1071V8.82143H13.4284V4.53571H23.4284L26.0427 7.39286H30.5713C32.1427 7.39286 33.4284 8.67857 33.4284 10.25V27.3929C33.4284 28.9643 32.1427 30.25 30.5713 30.25H7.71415C6.14272 30.25 4.857 28.9643 4.857 27.3929V13.1071H9.14272ZM19.1427 25.9643C23.0856 25.9643 26.2856 22.7643 26.2856 18.8214C26.2856 14.8786 23.0856 11.6786 19.1427 11.6786C15.1999 11.6786 11.9999 14.8786 11.9999 18.8214C11.9999 22.7643 15.1999 25.9643 19.1427 25.9643ZM14.5713 18.8214C14.5713 21.35 16.6141 23.3929 19.1427 23.3929C21.6713 23.3929 23.7141 21.35 23.7141 18.8214C23.7141 16.2929 21.6713 14.25 19.1427 14.25C16.6141 14.25 14.5713 16.2929 14.5713 18.8214Z" fill="#A04D31"/>
</svg>
