<svg width="16" height="14" viewBox="0 0 16 14" fill="none" xmlns="http://www.w3.org/2000/svg">
<path d="M13.7601 0.600098H2.24005C1.44805 0.600098 0.800049 1.2481 0.800049 2.0401V12.5859C0.800049 13.4768 1.87719 13.923 2.50716 13.293L3.38716 12.413C3.57469 12.2255 3.82905 12.1201 4.09426 12.1201H13.7601C14.5521 12.1201 15.2001 11.4721 15.2001 10.6801V2.0401C15.2001 1.2481 14.5521 0.600098 13.7601 0.600098ZM13.7601 9.6801C13.7601 10.2324 13.3123 10.6801 12.7601 10.6801H3.97828C3.78733 10.6801 3.60419 10.756 3.46917 10.891C3.01559 11.3446 2.24005 11.0233 2.24005 10.3819V3.0401C2.24005 2.48781 2.68776 2.0401 3.24005 2.0401H12.76C13.3123 2.0401 13.7601 2.48781 13.7601 3.0401V9.6801Z" fill="white"/>
</svg>
