<svg width="20" height="21" viewBox="0 0 20 21" fill="none" xmlns="http://www.w3.org/2000/svg">
<mask id="path-1-inside-1_23_274" fill="white">
<rect y="0.5" width="20" height="20" rx="4"/>
</mask>
<rect y="0.5" width="20" height="20" rx="4" fill="#A04D31"/>
<path d="M7.31 15.28C7.02067 14.4867 6.70333 13.7633 6.358 13.11C6.01267 12.4567 5.59267 11.7847 5.098 11.094L6.414 10.24C6.778 10.8093 7.1 11.3927 7.38 11.99C7.66933 12.578 7.93067 13.1613 8.164 13.74H8.22C8.556 12.62 8.95733 11.5467 9.424 10.52C9.9 9.484 10.4227 8.52733 10.992 7.65C11.5707 6.77267 12.1773 6.012 12.812 5.368L14.072 6.46C13.1293 7.34667 12.2287 8.49933 11.37 9.918C10.5113 11.3273 9.802 13.04 9.242 15.056L7.31 15.28Z" fill="white"/>
<rect y="0.5" width="20" height="20" rx="4" stroke="#A04D31" stroke-width="10" mask="url(#path-1-inside-1_23_274)"/>
</svg>
