<svg width="20" height="20" viewBox="0 0 20 20" fill="none" xmlns="http://www.w3.org/2000/svg">
<mask id="path-1-inside-1_122_1458" fill="white">
<rect width="20" height="20" rx="4"/>
</mask>
<rect width="20" height="20" rx="4" fill="#F5F5F7"/>
<path d="M7.31 14.78C7.02067 13.9867 6.70333 13.2633 6.358 12.61C6.01267 11.9567 5.59267 11.2847 5.098 10.594L6.414 9.74C6.778 10.3093 7.1 10.8927 7.38 11.49C7.66933 12.078 7.93067 12.6613 8.164 13.24H8.22C8.556 12.12 8.95733 11.0467 9.424 10.02C9.9 8.984 10.4227 8.02733 10.992 7.15C11.5707 6.27267 12.1773 5.512 12.812 4.868L14.072 5.96C13.1293 6.84667 12.2287 7.99933 11.37 9.418C10.5113 10.8273 9.802 12.54 9.242 14.556L7.31 14.78Z" fill="#F5F5F7"/>
<rect width="20" height="20" rx="4" stroke="#F5F5F7" stroke-width="10" mask="url(#path-1-inside-1_122_1458)"/>
</svg>
