<svg width="14" height="14" viewBox="0 0 14 14" fill="none" xmlns="http://www.w3.org/2000/svg">
<path d="M13.545 2.115C13.9344 1.72564 13.9344 1.09436 13.545 0.705C13.1556 0.315639 12.5244 0.315639 12.135 0.705L7.95711 4.88289C7.56658 5.27342 6.93342 5.27342 6.54289 4.88289L2.365 0.705C1.97564 0.315639 1.34436 0.315639 0.955 0.705C0.565639 1.09436 0.565639 1.72564 0.955 2.115L5.13289 6.29289C5.52342 6.68342 5.52342 7.31658 5.13289 7.70711L0.955 11.885C0.565639 12.2744 0.565639 12.9056 0.955 13.295C1.34436 13.6844 1.97564 13.6844 2.365 13.295L6.54289 9.11711C6.93342 8.72658 7.56658 8.72658 7.95711 9.11711L12.135 13.295C12.5244 13.6844 13.1556 13.6844 13.545 13.295C13.9344 12.9056 13.9344 12.2744 13.545 11.885L9.36711 7.70711C8.97658 7.31658 8.97658 6.68342 9.36711 6.29289L13.545 2.115Z" fill="#212121"/>
</svg>
