<svg width="20" height="20" viewBox="0 0 20 20" fill="none" xmlns="http://www.w3.org/2000/svg">
<rect width="20" height="20" rx="10" fill="#A04D31"/>
<path d="M10.6533 9.26667C9.14 8.87333 8.65333 8.46667 8.65333 7.83333C8.65333 7.10667 9.32667 6.6 10.4533 6.6C11.2772 6.6 11.7412 6.87315 11.9613 7.31905C12.1357 7.67252 12.4299 8 12.824 8C13.2437 8 13.5894 7.64412 13.4613 7.24442C13.2491 6.58248 12.7848 6.00937 12.059 5.67072C11.7174 5.51133 11.4533 5.19475 11.4533 4.81778C11.4533 4.36613 11.0872 4 10.6356 4H10.2504C9.81018 4 9.45333 4.35685 9.45333 4.79705C9.45333 5.17225 9.18749 5.48783 8.83774 5.62368C7.8453 6.00916 7.12 6.77216 7.12 7.84667C7.12 9.38667 8.39333 10.1533 10.2533 10.6C11.92 11 12.2533 11.5867 12.2533 12.2067C12.2533 12.6667 11.9267 13.4 10.4533 13.4C9.48803 13.4 8.93444 13.097 8.66523 12.6437C8.46867 12.3128 8.17236 12 7.78745 12C7.3597 12 7.00717 12.3675 7.15199 12.77C7.43321 13.5516 8.06644 14.077 8.83322 14.3709C9.18553 14.5059 9.45333 14.823 9.45333 15.2003C9.45333 15.642 9.81137 16 10.253 16H10.6693C11.1023 16 11.4533 15.649 11.4533 15.2159C11.4533 14.8393 11.7251 14.5249 12.0803 14.3997C13.0704 14.0505 13.7867 13.3378 13.7867 12.2C13.7867 10.3067 12.1667 9.66 10.6533 9.26667Z" fill="white"/>
</svg>
