<svg width="20" height="20" viewBox="0 0 16 17" fill="none" xmlns="http://www.w3.org/2000/svg">
<rect y="0.5" width="16" height="16" rx="8" fill="#F5F5F7"/>
<path d="M8.34889 7.82778C6.96167 7.46722 6.51556 7.09444 6.51556 6.51389C6.51556 5.84778 7.13278 5.38333 8.16556 5.38333C8.92079 5.38333 9.34609 5.63372 9.54782 6.04247C9.70773 6.36648 9.97737 6.66667 10.3387 6.66667C10.7234 6.66667 11.0402 6.34044 10.9228 5.97406C10.7283 5.36727 10.3027 4.84192 9.63739 4.53149C9.32424 4.38539 9.08222 4.09519 9.08222 3.74963C9.08222 3.33562 8.7466 3 8.33259 3H7.97951C7.576 3 7.24889 3.32711 7.24889 3.73063C7.24889 4.07456 7.0052 4.36384 6.6846 4.48837C5.77486 4.84173 5.11 5.54115 5.11 6.52611C5.11 7.93778 6.27722 8.64056 7.98222 9.05C9.51 9.41667 9.81556 9.95444 9.81556 10.5228C9.81556 10.9444 9.51611 11.6167 8.16556 11.6167C7.2807 11.6167 6.77324 11.3389 6.52646 10.9234C6.34628 10.6201 6.07466 10.3333 5.72183 10.3333C5.32973 10.3333 5.00657 10.6702 5.13932 11.0391C5.39711 11.7556 5.97757 12.2372 6.68045 12.5066C7.0034 12.6304 7.24889 12.9211 7.24889 13.2669C7.24889 13.6718 7.57709 14 7.98195 14H8.36351C8.76044 14 9.08222 13.6782 9.08222 13.2813C9.08222 12.936 9.33131 12.6478 9.65693 12.533C10.5645 12.213 11.2211 11.5597 11.2211 10.5167C11.2211 8.78111 9.73611 8.18833 8.34889 7.82778Z" fill="#8492A6"/>
</svg>
