<svg width="6" height="21" viewBox="0 0 6 21" fill="none" xmlns="http://www.w3.org/2000/svg">
<path d="M3 5.021C4.375 5.021 5.5 3.896 5.5 2.521C5.5 1.146 4.375 0.0209961 3 0.0209961C1.625 0.0209961 0.5 1.146 0.5 2.521C0.5 3.896 1.625 5.021 3 5.021ZM3 7.521C1.625 7.521 0.5 8.646 0.5 10.021C0.5 11.396 1.625 12.521 3 12.521C4.375 12.521 5.5 11.396 5.5 10.021C5.5 8.646 4.375 7.521 3 7.521ZM3 15.021C1.625 15.021 0.5 16.146 0.5 17.521C0.5 18.896 1.625 20.021 3 20.021C4.375 20.021 5.5 18.896 5.5 17.521C5.5 16.146 4.375 15.021 3 15.021Z" fill="white"/>
</svg>
