<svg width="22" height="22" viewBox="0 0 22 22" fill="none" xmlns="http://www.w3.org/2000/svg">
<path d="M0.292893 17.1244C0.105356 17.3119 0 17.5663 0 17.8315V21C0 21.5523 0.447715 22 1 22H4.16848C4.4337 22 4.68805 21.8946 4.87559 21.7071L17.3915 9.1912C17.782 8.80068 17.782 8.16752 17.3915 7.77699L14.223 4.60851C13.8325 4.21799 13.1993 4.21799 12.8088 4.60851L0.292893 17.1244ZM21.6425 4.94015C22.1192 4.46355 22.1192 3.69365 21.6425 3.21705L18.7829 0.35745C18.3063 -0.11915 17.5365 -0.11915 17.0599 0.35745L15.5306 1.8867C15.1401 2.27722 15.1401 2.91039 15.5306 3.30091L18.6991 6.4694C19.0896 6.85992 19.7228 6.85992 20.1133 6.4694L21.6425 4.94015Z" fill="#F85706"/>
</svg>
