<svg width="20" height="20" viewBox="0 0 20 20" fill="none" xmlns="http://www.w3.org/2000/svg">
<path d="M10 8.9C9.39 8.9 8.9 9.39 8.9 10C8.9 10.61 9.39 11.1 10 11.1C10.61 11.1 11.1 10.61 11.1 10C11.1 9.39 10.61 8.9 10 8.9ZM10 0C4.48 0 0 4.48 0 10C0 15.52 4.48 20 10 20C15.52 20 20 15.52 20 10C20 4.48 15.52 0 10 0ZM12.344 11.8591C12.2445 12.0728 12.0728 12.2445 11.8591 12.344L6.48409 14.8444C5.63841 15.2378 4.76219 14.3616 5.1556 13.5159L7.65605 8.14094C7.75547 7.92721 7.92721 7.75547 8.14094 7.65605L13.5159 5.1556C14.3616 4.76219 15.2378 5.63841 14.8444 6.48409L12.344 11.8591Z" fill="#8492A6"/>
</svg>
