<svg width="24" height="24" viewBox="0 0 24 24" fill="none" xmlns="http://www.w3.org/2000/svg">
<path d="M9 11.75C8.31 11.75 7.75 12.31 7.75 13C7.75 13.69 8.31 14.25 9 14.25C9.69 14.25 10.25 13.69 10.25 13C10.25 12.31 9.69 11.75 9 11.75ZM15 11.75C14.31 11.75 13.75 12.31 13.75 13C13.75 13.69 14.31 14.25 15 14.25C15.69 14.25 16.25 13.69 16.25 13C16.25 12.31 15.69 11.75 15 11.75ZM12 2C6.48 2 2 6.48 2 12C2 17.52 6.48 22 12 22C17.52 22 22 17.52 22 12C22 6.48 17.52 2 12 2ZM12 20C7.59 20 4 16.41 4 12C4 11.9047 4.00216 11.8094 4.00613 11.7144C4.02101 11.3581 4.2525 11.0542 4.56943 10.8907C6.14354 10.0785 7.4709 8.86343 8.4207 7.38288C8.84665 6.71889 9.87566 6.60198 10.4396 7.15356C12.2408 8.91503 14.7037 10 17.42 10C17.8701 10 18.3102 9.97003 18.7404 9.91201C19.2663 9.84107 19.7948 10.1375 19.8849 10.6605C19.9597 11.0943 20 11.5421 20 12C20 16.41 16.41 20 12 20Z" fill="#212121"/>
</svg>
