<svg width="14" height="12" viewBox="0 0 14 12" fill="none" xmlns="http://www.w3.org/2000/svg">
<path d="M13.3999 10.1333L7.66659 5.83328V5.22661C8.76659 4.89994 9.53326 3.77994 9.2866 2.52661C9.11326 1.65328 8.41993 0.926609 7.54659 0.726609C6.0266 0.379942 4.66659 1.53328 4.66659 2.99994H5.99993C5.99993 2.44661 6.4466 1.99994 6.99993 1.99994C7.55326 1.99994 7.99993 2.44661 7.99993 2.99994C7.99993 3.55994 7.53993 4.01328 6.97993 3.99994C6.61993 3.99328 6.33326 4.29994 6.33326 4.65994V5.83328L0.599929 10.1333C0.0865955 10.5199 0.359929 11.3333 0.999929 11.3333H6.99993H12.9999C13.6399 11.3333 13.9133 10.5199 13.3999 10.1333ZM2.99993 9.99994L6.99993 6.99994L10.9999 9.99994H2.99993Z" fill="#A04D31"/>
</svg>
