<svg width="40" height="40" viewBox="0 0 40 40" fill="none" xmlns="http://www.w3.org/2000/svg">
<path d="M22.5001 1.1167C22.5001 1.1167 23.7334 5.53337 23.7334 9.1167C23.7334 12.55 21.4834 15.3334 18.0501 15.3334C14.6001 15.3334 12.0001 12.55 12.0001 9.1167L12.0501 8.5167C8.68341 12.5167 6.66675 17.7 6.66675 23.3334C6.66675 30.7 12.6334 36.6667 20.0001 36.6667C27.3667 36.6667 33.3334 30.7 33.3334 23.3334C33.3334 14.35 29.0167 6.33337 22.5001 1.1167ZM19.5167 31.6667C16.5501 31.6667 14.1501 29.3334 14.1501 26.4334C14.1501 23.7334 15.9001 21.8334 18.8334 21.2334C21.7834 20.6334 24.8334 19.2167 26.5334 16.9334C27.1834 19.0834 27.5167 21.35 27.5167 23.6667C27.5167 28.0834 23.9334 31.6667 19.5167 31.6667Z" fill="white"/>
</svg>
