<svg width="28" height="36" viewBox="0 0 28 36" fill="none" xmlns="http://www.w3.org/2000/svg">
<path d="M16.5 0.116699C16.5 0.116699 17.7333 4.53337 17.7333 8.1167C17.7333 11.55 15.4833 14.3334 12.05 14.3334C8.6 14.3334 6 11.55 6 8.1167L6.05 7.5167C2.68334 11.5167 0.666672 16.7 0.666672 22.3334C0.666672 29.7 6.63334 35.6667 14 35.6667C21.3667 35.6667 27.3333 29.7 27.3333 22.3334C27.3333 13.35 23.0167 5.33337 16.5 0.116699ZM13.5167 30.6667C10.55 30.6667 8.15 28.3334 8.15 25.4334C8.15 22.7334 9.9 20.8334 12.8333 20.2334C15.7833 19.6334 18.8333 18.2167 20.5333 15.9334C21.1833 18.0834 21.5167 20.35 21.5167 22.6667C21.5167 27.0834 17.9333 30.6667 13.5167 30.6667Z" fill="#F85706"/>
</svg>
