<svg width="18" height="18" viewBox="0 0 18 18" fill="none" xmlns="http://www.w3.org/2000/svg">
<path d="M6 17.5C6.55228 17.5 7 17.0523 7 16.5V12.5C7 11.9477 7.44771 11.5 8 11.5H10C10.5523 11.5 11 11.9477 11 12.5V16.5C11 17.0523 11.4477 17.5 12 17.5H15C15.5523 17.5 16 17.0523 16 16.5V10.332C16 9.87247 16.3725 9.5 16.832 9.5C17.5944 9.5 17.9552 8.55972 17.3885 8.04965L9.66897 1.10207C9.28866 0.759794 8.71134 0.759794 8.33104 1.10207L0.611496 8.04965C0.0447525 8.55972 0.405569 9.5 1.16804 9.5C1.62752 9.5 2 9.87247 2 10.332V16.5C2 17.0523 2.44772 17.5 3 17.5H6Z" fill="#8492A6"/>
</svg>
