<svg width="36" height="59" viewBox="0 0 36 59" fill="none" xmlns="http://www.w3.org/2000/svg">
<path d="M1.5 0.333496C0.947715 0.333496 0.5 0.781211 0.5 1.3335V17.825C0.5 17.8297 0.503825 17.8335 0.508543 17.8335C0.516154 17.8335 0.519965 17.8427 0.514584 17.8481L0.50855 17.8541C0.50383 17.8588 0.503835 17.8665 0.508561 17.8712L11.4578 28.7931C11.8491 29.1834 11.8495 29.8173 11.4587 30.2082L0.508544 41.1583C0.503826 41.163 0.503825 41.1707 0.508543 41.1754L0.514585 41.1814C0.519967 41.1868 0.516155 41.196 0.508543 41.196C0.503825 41.196 0.5 41.1998 0.5 41.2045V57.6668C0.5 58.2191 0.947715 58.6668 1.5 58.6668H34.5C35.0523 58.6668 35.5 58.2191 35.5 57.6668V41.2045C35.5 41.1998 35.4962 41.196 35.4915 41.196C35.4838 41.196 35.48 41.1868 35.4854 41.1814L35.4915 41.1754C35.4962 41.1707 35.4962 41.163 35.4915 41.1583L24.5413 30.2082C24.1505 29.8173 24.1509 29.1834 24.5422 28.7931L35.4914 17.8712C35.4962 17.8665 35.4962 17.8588 35.4915 17.8541L35.4854 17.8481C35.48 17.8427 35.4838 17.8335 35.4915 17.8335C35.4962 17.8335 35.5 17.8297 35.5 17.825V1.3335C35.5 0.781211 35.0523 0.333496 34.5 0.333496H1.5ZM29.3738 42.3323C29.5613 42.5198 29.6667 42.7742 29.6667 43.0394V51.8335C29.6667 52.3858 29.219 52.8335 28.6667 52.8335H7.33333C6.78105 52.8335 6.33333 52.3858 6.33333 51.8335V43.0394C6.33333 42.7742 6.43869 42.5198 6.62623 42.3323L17.2929 31.6656C17.6834 31.2751 18.3166 31.2751 18.7071 31.6656L29.3738 42.3323ZM18.7071 27.3347C18.3166 27.7252 17.6834 27.7253 17.2929 27.3347L6.62623 16.6681C6.43869 16.4805 6.33333 16.2262 6.33333 15.961V7.16683C6.33333 6.61454 6.78105 6.16683 7.33333 6.16683H28.6667C29.219 6.16683 29.6667 6.61455 29.6667 7.16683V15.961C29.6667 16.2262 29.5613 16.4805 29.3738 16.6681L18.7071 27.3347Z" fill="black"/>
</svg>
