<svg width="30" height="31" viewBox="0 0 30 31" fill="none" xmlns="http://www.w3.org/2000/svg">
<path d="M25.2632 8.14474V12.8658C25.2632 12.8658 22.1211 12.8816 22.1053 12.8658V8.14474H17.3684C17.3684 8.14474 17.3842 5.00263 17.3684 4.98684H22.1053V0.25H25.2632V4.98684H30V8.14474H25.2632ZM20.5263 14.4605V9.72368H15.7895V4.98684H3.15789C1.42105 4.98684 0 6.4079 0 8.14474V27.0921C0 28.8289 1.42105 30.25 3.15789 30.25H22.1053C23.8421 30.25 25.2632 28.8289 25.2632 27.0921V14.4605H20.5263ZM3.15789 27.0921L7.89474 20.7763L11.0526 25.5132L15.7895 19.1974L22.1053 27.0921H3.15789Z" fill="#A04D31"/>
</svg>
