<svg width="14" height="12" viewBox="0 0 14 12" fill="none" xmlns="http://www.w3.org/2000/svg">
<path d="M13.4002 10.1333L7.86157 5.97932C7.73898 5.88738 7.66684 5.7431 7.66684 5.58987C7.66684 5.37439 7.81116 5.18918 8.00559 5.0963C8.91842 4.66026 9.50728 3.64668 9.28684 2.52661C9.11351 1.65328 8.42017 0.926609 7.54684 0.726609C6.20334 0.420197 4.98484 1.28565 4.71997 2.50355C4.66129 2.77339 4.8907 2.99994 5.16684 2.99994H5.50017C5.77631 2.99994 5.98966 2.76269 6.12201 2.52033C6.29151 2.20994 6.62077 1.99994 7.00017 1.99994C7.55351 1.99994 8.00017 2.44661 8.00017 2.99994C8.00017 3.55994 7.54017 4.01328 6.98017 3.99994C6.62017 3.99328 6.33351 4.29994 6.33351 4.65994V5.58328C6.33351 5.74066 6.25941 5.88885 6.13351 5.98328L0.600173 10.1333C0.0868397 10.5199 0.360173 11.3333 1.00017 11.3333H7.00017H13.0002C13.6402 11.3333 13.9135 10.5199 13.4002 10.1333ZM4.50017 9.99994C4.01967 9.99994 3.81577 9.38825 4.20017 9.09994L6.70017 7.22494C6.87795 7.09161 7.12239 7.09161 7.30017 7.22494L9.80017 9.09994C10.1846 9.38825 9.98068 9.99994 9.50017 9.99994H4.50017Z" fill="white"/>
</svg>
