<svg width="30" height="31" viewBox="0 0 30 31" fill="none" xmlns="http://www.w3.org/2000/svg">
<path d="M25.2632 8.64474V13.3658C25.2632 13.3658 22.1211 13.3816 22.1053 13.3658V8.64474H17.3684C17.3684 8.64474 17.3842 5.50263 17.3684 5.48684H22.1053V0.75H25.2632V5.48684H30V8.64474H25.2632ZM20.5263 14.9605V10.2237H15.7895V5.48684H3.15789C1.42105 5.48684 0 6.9079 0 8.64474V27.5921C0 29.3289 1.42105 30.75 3.15789 30.75H22.1053C23.8421 30.75 25.2632 29.3289 25.2632 27.5921V14.9605H20.5263ZM3.15789 27.5921L7.89474 21.2763L11.0526 26.0132L15.7895 19.6974L22.1053 27.5921H3.15789Z" fill="#8492A6" fill-opacity="0.5"/>
</svg>
