<svg width="16" height="17" viewBox="0 0 16 17" fill="none" xmlns="http://www.w3.org/2000/svg">
<path d="M12.4 4.91309C11.44 4.91309 10.5333 5.28642 9.88667 5.93309L8 7.60642L6.98917 8.49754C6.9883 8.49831 6.98885 8.49975 6.99001 8.49975C6.99117 8.49975 6.99172 8.50119 6.99085 8.50196L5.2 10.0931C4.77333 10.5198 4.20667 10.7531 3.6 10.7531C2.35333 10.7531 1.34 9.74642 1.34 8.49975C1.34 7.25309 2.35333 6.24642 3.6 6.24642C4.20667 6.24642 4.77333 6.47975 5.22667 6.93309L5.53721 7.2079C5.78993 7.43155 6.16984 7.43128 6.42225 7.20729C6.72211 6.94119 6.72126 6.47261 6.42044 6.2076L6.14667 5.96642C5.46667 5.28642 4.56 4.91309 3.6 4.91309C1.61333 4.91309 0 6.52642 0 8.49975C0 10.4731 1.61333 12.0864 3.6 12.0864C4.56 12.0864 5.46667 11.7131 6.11333 11.0664L7.99648 9.40286C7.99846 9.40111 8.00145 9.40121 8.00332 9.40307C8.00519 9.40495 8.00821 9.40503 8.01019 9.40325L9.01087 8.50197C9.01174 8.50119 9.01118 8.49975 9.01002 8.49975C9.00885 8.49975 9.0083 8.4983 9.00917 8.49753L10.8 6.90642C11.2267 6.47975 11.7933 6.24642 12.4 6.24642C13.6467 6.24642 14.66 7.25309 14.66 8.49975C14.66 9.74642 13.6467 10.7531 12.4 10.7531C11.8 10.7531 11.2267 10.5198 10.7733 10.0664L10.4562 9.78543C10.2035 9.56154 9.82334 9.56169 9.57081 9.78579C9.27104 10.0518 9.27177 10.5202 9.57236 10.7853L9.85333 11.0331C10.5333 11.7064 11.4333 12.0798 12.4 12.0798C14.3867 12.0798 16 10.4731 16 8.49309C16 6.51309 14.3867 4.91309 12.4 4.91309Z" fill="#A04D31"/>
</svg>
