<svg width="61" height="17" viewBox="0 0 61 17" fill="none" xmlns="http://www.w3.org/2000/svg">
<path d="M5.995 3.5C3.235 3.5 1 5.74 1 8.5C1 11.26 3.235 13.5 5.995 13.5C8.76 13.5 11 11.26 11 8.5C11 5.74 8.76 3.5 5.995 3.5ZM6 12.5C3.79 12.5 2 10.71 2 8.5C2 6.29 3.79 4.5 6 4.5C8.21 4.5 10 6.29 10 8.5C10 10.71 8.21 12.5 6 12.5Z" fill="#FF2222"/>
<path d="M6.25 6H5.5V9L8.125 10.575L8.5 9.96L6.25 8.625V6Z" fill="#FF2222"/>
<path d="M17.17 13.5V4.972H19.601C20.2423 4.972 20.8013 5.05 21.278 5.206C21.7547 5.362 22.1273 5.62633 22.396 5.999C22.6647 6.363 22.799 6.857 22.799 7.481C22.799 8.37367 22.5087 9.03667 21.928 9.47C21.3473 9.90333 20.589 10.12 19.653 10.12H18.249V13.5H17.17ZM18.249 9.236H19.523C20.2683 9.236 20.8187 9.09733 21.174 8.82C21.538 8.534 21.72 8.08767 21.72 7.481C21.72 6.86567 21.5293 6.441 21.148 6.207C20.7753 5.96433 20.2163 5.843 19.471 5.843H18.249V9.236ZM26.6729 13.656C26.1096 13.656 25.5982 13.526 25.1389 13.266C24.6796 12.9973 24.3156 12.616 24.0469 12.122C23.7782 11.628 23.6439 11.0387 23.6439 10.354C23.6439 9.66067 23.7782 9.067 24.0469 8.573C24.3242 8.079 24.6796 7.69767 25.1129 7.429C25.5462 7.16033 26.0012 7.026 26.4779 7.026C27.2839 7.026 27.9036 7.29467 28.3369 7.832C28.7789 8.36933 28.9999 9.08867 28.9999 9.99C28.9999 10.1027 28.9956 10.2153 28.9869 10.328C28.9869 10.432 28.9782 10.523 28.9609 10.601H24.6969C24.7402 11.2683 24.9482 11.8013 25.3209 12.2C25.7022 12.5987 26.1962 12.798 26.8029 12.798C27.1062 12.798 27.3836 12.7547 27.6349 12.668C27.8949 12.5727 28.1419 12.4513 28.3759 12.304L28.7529 13.006C28.4842 13.1793 28.1766 13.331 27.8299 13.461C27.4919 13.591 27.1062 13.656 26.6729 13.656ZM24.6839 9.834H28.0639C28.0639 9.19267 27.9252 8.70733 27.6479 8.378C27.3792 8.04 26.9979 7.871 26.5039 7.871C26.0619 7.871 25.6632 8.04433 25.3079 8.391C24.9612 8.729 24.7532 9.21 24.6839 9.834ZM30.5611 13.5V7.182H31.4451L31.5361 8.092H31.5751C31.8785 7.78867 32.1991 7.53733 32.5371 7.338C32.8751 7.13 33.2608 7.026 33.6941 7.026C34.3615 7.026 34.8468 7.23833 35.1501 7.663C35.4621 8.079 35.6181 8.69 35.6181 9.496V13.5H34.5521V9.639C34.5521 9.04967 34.4568 8.62067 34.2661 8.352C34.0755 8.08333 33.7721 7.949 33.3561 7.949C33.0355 7.949 32.7451 8.03133 32.4851 8.196C32.2338 8.36067 31.9478 8.60333 31.6271 8.924V13.5H30.5611ZM39.8285 13.656C39.0398 13.656 38.4072 13.37 37.9305 12.798C37.4538 12.2173 37.2155 11.4027 37.2155 10.354C37.2155 9.66933 37.3412 9.08 37.5925 8.586C37.8525 8.08333 38.1905 7.69767 38.6065 7.429C39.0312 7.16033 39.4818 7.026 39.9585 7.026C40.3225 7.026 40.6388 7.091 40.9075 7.221C41.1762 7.351 41.4492 7.52867 41.7265 7.754L41.6745 6.675V4.244H42.7535V13.5H41.8695L41.7785 12.759H41.7395C41.4968 13.0017 41.2108 13.214 40.8815 13.396C40.5522 13.5693 40.2012 13.656 39.8285 13.656ZM40.0625 12.759C40.6172 12.759 41.1545 12.4687 41.6745 11.888V8.586C41.4058 8.34333 41.1458 8.17433 40.8945 8.079C40.6518 7.975 40.4005 7.923 40.1405 7.923C39.8025 7.923 39.4948 8.027 39.2175 8.235C38.9488 8.43433 38.7322 8.716 38.5675 9.08C38.4028 9.43533 38.3205 9.85567 38.3205 10.341C38.3205 11.095 38.4722 11.6887 38.7755 12.122C39.0788 12.5467 39.5078 12.759 40.0625 12.759ZM44.8814 13.5V7.182H45.9474V13.5H44.8814ZM45.4274 5.882C45.2194 5.882 45.0461 5.82133 44.9074 5.7C44.7774 5.57 44.7124 5.39667 44.7124 5.18C44.7124 4.972 44.7774 4.803 44.9074 4.673C45.0461 4.543 45.2194 4.478 45.4274 4.478C45.6354 4.478 45.8044 4.543 45.9344 4.673C46.0731 4.803 46.1424 4.972 46.1424 5.18C46.1424 5.39667 46.0731 5.57 45.9344 5.7C45.8044 5.82133 45.6354 5.882 45.4274 5.882ZM48.0806 13.5V7.182H48.9646L49.0556 8.092H49.0946C49.398 7.78867 49.7186 7.53733 50.0566 7.338C50.3946 7.13 50.7803 7.026 51.2136 7.026C51.881 7.026 52.3663 7.23833 52.6696 7.663C52.9816 8.079 53.1376 8.69 53.1376 9.496V13.5H52.0716V9.639C52.0716 9.04967 51.9763 8.62067 51.7856 8.352C51.595 8.08333 51.2916 7.949 50.8756 7.949C50.555 7.949 50.2646 8.03133 50.0046 8.196C49.7533 8.36067 49.4673 8.60333 49.1466 8.924V13.5H48.0806ZM57.322 16.412C56.5507 16.412 55.9224 16.2647 55.437 15.97C54.9517 15.6753 54.709 15.255 54.709 14.709C54.709 14.4403 54.7914 14.1803 54.956 13.929C55.1207 13.6863 55.346 13.4697 55.632 13.279V13.227C55.476 13.1317 55.3417 12.9973 55.229 12.824C55.125 12.6507 55.073 12.4427 55.073 12.2C55.073 11.9313 55.1467 11.6973 55.294 11.498C55.4414 11.2987 55.5974 11.1427 55.762 11.03V10.978C55.554 10.8047 55.3634 10.5707 55.19 10.276C55.0254 9.98133 54.943 9.64767 54.943 9.275C54.943 8.81567 55.0514 8.417 55.268 8.079C55.4847 7.741 55.775 7.481 56.139 7.299C56.503 7.117 56.8974 7.026 57.322 7.026C57.4954 7.026 57.66 7.04333 57.816 7.078C57.972 7.104 58.1064 7.13867 58.219 7.182H60.416V8.001H59.116C59.2634 8.13967 59.3847 8.326 59.48 8.56C59.584 8.78533 59.636 9.03233 59.636 9.301C59.636 9.75167 59.532 10.1417 59.324 10.471C59.116 10.8003 58.8387 11.056 58.492 11.238C58.1454 11.4113 57.7554 11.498 57.322 11.498C56.984 11.498 56.6677 11.4243 56.373 11.277C56.2604 11.3723 56.165 11.4807 56.087 11.602C56.009 11.7147 55.97 11.8577 55.97 12.031C55.97 12.2303 56.048 12.395 56.204 12.525C56.3687 12.655 56.6634 12.72 57.088 12.72H58.31C59.0467 12.72 59.597 12.8413 59.961 13.084C60.3337 13.318 60.52 13.6993 60.52 14.228C60.52 14.618 60.39 14.9777 60.13 15.307C59.87 15.6363 59.5017 15.9007 59.025 16.1C58.5484 16.308 57.9807 16.412 57.322 16.412ZM57.322 10.783C57.686 10.783 57.998 10.6487 58.258 10.38C58.5267 10.1027 58.661 9.73433 58.661 9.275C58.661 8.81567 58.531 8.456 58.271 8.196C58.011 7.936 57.6947 7.806 57.322 7.806C56.9494 7.806 56.633 7.936 56.373 8.196C56.113 8.456 55.983 8.81567 55.983 9.275C55.983 9.73433 56.113 10.1027 56.373 10.38C56.6417 10.6487 56.958 10.783 57.322 10.783ZM57.478 15.671C58.0847 15.671 58.57 15.5367 58.934 15.268C59.298 15.008 59.48 14.7133 59.48 14.384C59.48 14.0893 59.3674 13.8857 59.142 13.773C58.9254 13.6603 58.6134 13.604 58.206 13.604H57.114C56.9927 13.604 56.8584 13.5953 56.711 13.578C56.5724 13.5607 56.4337 13.5347 56.295 13.5C56.0697 13.6647 55.905 13.838 55.801 14.02C55.697 14.202 55.645 14.384 55.645 14.566C55.645 14.904 55.8054 15.1727 56.126 15.372C56.4554 15.5713 56.906 15.671 57.478 15.671Z" fill="#FF2222"/>
</svg>
