<svg width="58" height="17" viewBox="0 0 58 17" fill="none" xmlns="http://www.w3.org/2000/svg">
<path d="M6 3.5C3.24 3.5 1 5.74 1 8.5C1 11.26 3.24 13.5 6 13.5C8.76 13.5 11 11.26 11 8.5C11 5.74 8.76 3.5 6 3.5ZM5 11L2.5 8.5L3.205 7.795L5 9.585L8.795 5.79L9.5 6.5L5 11Z" fill="#13CE66"/>
<path d="M18.73 13.5L16 4.972H17.157L18.522 9.574C18.678 10.0767 18.8123 10.549 18.925 10.991C19.0463 11.4243 19.1893 11.8923 19.354 12.395H19.406C19.562 11.8923 19.7007 11.4243 19.822 10.991C19.9433 10.549 20.0777 10.0767 20.225 9.574L21.59 4.972H22.695L19.991 13.5H18.73ZM26.127 13.656C25.5637 13.656 25.0523 13.526 24.593 13.266C24.1337 12.9973 23.7697 12.616 23.501 12.122C23.2323 11.628 23.098 11.0387 23.098 10.354C23.098 9.66067 23.2323 9.067 23.501 8.573C23.7783 8.079 24.1337 7.69767 24.567 7.429C25.0003 7.16033 25.4553 7.026 25.932 7.026C26.738 7.026 27.3577 7.29467 27.791 7.832C28.233 8.36933 28.454 9.08867 28.454 9.99C28.454 10.1027 28.4497 10.2153 28.441 10.328C28.441 10.432 28.4323 10.523 28.415 10.601H24.151C24.1943 11.2683 24.4023 11.8013 24.775 12.2C25.1563 12.5987 25.6503 12.798 26.257 12.798C26.5603 12.798 26.8377 12.7547 27.089 12.668C27.349 12.5727 27.596 12.4513 27.83 12.304L28.207 13.006C27.9383 13.1793 27.6307 13.331 27.284 13.461C26.946 13.591 26.5603 13.656 26.127 13.656ZM24.138 9.834H27.518C27.518 9.19267 27.3793 8.70733 27.102 8.378C26.8333 8.04 26.452 7.871 25.958 7.871C25.516 7.871 25.1173 8.04433 24.762 8.391C24.4153 8.729 24.2073 9.21 24.138 9.834ZM30.0152 13.5V7.182H30.8992L30.9902 8.326H31.0292C31.2459 7.92733 31.5102 7.611 31.8222 7.377C32.1342 7.143 32.4679 7.026 32.8232 7.026C33.0746 7.026 33.2999 7.06933 33.4992 7.156L33.2912 8.092C33.1872 8.05733 33.0919 8.03133 33.0052 8.014C32.9186 7.99667 32.8102 7.988 32.6802 7.988C32.4116 7.988 32.1299 8.09633 31.8352 8.313C31.5492 8.52967 31.2979 8.90667 31.0812 9.444V13.5H30.0152ZM34.5221 13.5V7.182H35.5881V13.5H34.5221ZM35.0681 5.882C34.8601 5.882 34.6867 5.82133 34.5481 5.7C34.4181 5.57 34.3531 5.39667 34.3531 5.18C34.3531 4.972 34.4181 4.803 34.5481 4.673C34.6867 4.543 34.8601 4.478 35.0681 4.478C35.2761 4.478 35.4451 4.543 35.5751 4.673C35.7137 4.803 35.7831 4.972 35.7831 5.18C35.7831 5.39667 35.7137 5.57 35.5751 5.7C35.4451 5.82133 35.2761 5.882 35.0681 5.882ZM37.9033 13.5V8.053H37.0453V7.247L37.9033 7.182V6.181C37.9033 5.53967 38.0506 5.03267 38.3453 4.66C38.6486 4.27867 39.1166 4.088 39.7493 4.088C39.9486 4.088 40.1393 4.10967 40.3213 4.153C40.5033 4.18767 40.6636 4.23533 40.8023 4.296L40.5683 5.115C40.3343 5.011 40.0959 4.959 39.8533 4.959C39.2639 4.959 38.9693 5.36633 38.9693 6.181V7.182H40.3083V8.053H38.9693V13.5H37.9033ZM41.5172 13.5V7.182H42.5832V13.5H41.5172ZM42.0632 5.882C41.8552 5.882 41.6818 5.82133 41.5432 5.7C41.4132 5.57 41.3482 5.39667 41.3482 5.18C41.3482 4.972 41.4132 4.803 41.5432 4.673C41.6818 4.543 41.8552 4.478 42.0632 4.478C42.2712 4.478 42.4402 4.543 42.5702 4.673C42.7088 4.803 42.7782 4.972 42.7782 5.18C42.7782 5.39667 42.7088 5.57 42.5702 5.7C42.4402 5.82133 42.2712 5.882 42.0632 5.882ZM47.2774 13.656C46.7141 13.656 46.2027 13.526 45.7434 13.266C45.2841 12.9973 44.9201 12.616 44.6514 12.122C44.3827 11.628 44.2484 11.0387 44.2484 10.354C44.2484 9.66067 44.3827 9.067 44.6514 8.573C44.9287 8.079 45.2841 7.69767 45.7174 7.429C46.1507 7.16033 46.6057 7.026 47.0824 7.026C47.8884 7.026 48.5081 7.29467 48.9414 7.832C49.3834 8.36933 49.6044 9.08867 49.6044 9.99C49.6044 10.1027 49.6001 10.2153 49.5914 10.328C49.5914 10.432 49.5827 10.523 49.5654 10.601H45.3014C45.3447 11.2683 45.5527 11.8013 45.9254 12.2C46.3067 12.5987 46.8007 12.798 47.4074 12.798C47.7107 12.798 47.9881 12.7547 48.2394 12.668C48.4994 12.5727 48.7464 12.4513 48.9804 12.304L49.3574 13.006C49.0887 13.1793 48.7811 13.331 48.4344 13.461C48.0964 13.591 47.7107 13.656 47.2774 13.656ZM45.2884 9.834H48.6684C48.6684 9.19267 48.5297 8.70733 48.2524 8.378C47.9837 8.04 47.6024 7.871 47.1084 7.871C46.6664 7.871 46.2677 8.04433 45.9124 8.391C45.5657 8.729 45.3577 9.21 45.2884 9.834ZM53.3236 13.656C52.5349 13.656 51.9023 13.37 51.4256 12.798C50.9489 12.2173 50.7106 11.4027 50.7106 10.354C50.7106 9.66933 50.8363 9.08 51.0876 8.586C51.3476 8.08333 51.6856 7.69767 52.1016 7.429C52.5263 7.16033 52.9769 7.026 53.4536 7.026C53.8176 7.026 54.1339 7.091 54.4026 7.221C54.6713 7.351 54.9443 7.52867 55.2216 7.754L55.1696 6.675V4.244H56.2486V13.5H55.3646L55.2736 12.759H55.2346C54.9919 13.0017 54.7059 13.214 54.3766 13.396C54.0473 13.5693 53.6963 13.656 53.3236 13.656ZM53.5576 12.759C54.1123 12.759 54.6496 12.4687 55.1696 11.888V8.586C54.9009 8.34333 54.6409 8.17433 54.3896 8.079C54.1469 7.975 53.8956 7.923 53.6356 7.923C53.2976 7.923 52.9899 8.027 52.7126 8.235C52.4439 8.43433 52.2273 8.716 52.0626 9.08C51.8979 9.43533 51.8156 9.85567 51.8156 10.341C51.8156 11.095 51.9673 11.6887 52.2706 12.122C52.5739 12.5467 53.0029 12.759 53.5576 12.759Z" fill="#13CE66"/>
</svg>
