<svg width="12" height="13" viewBox="0 0 12 13" fill="none" xmlns="http://www.w3.org/2000/svg">
<path d="M8.28571 6.78571C6.70857 6.78571 5.42857 8.06571 5.42857 9.64286C5.42857 11.22 6.70857 12.5 8.28571 12.5C9.86285 12.5 11.1429 11.22 11.1429 9.64286C11.1429 8.06571 9.86285 6.78571 8.28571 6.78571ZM9.42999 10.7814C9.31898 10.894 9.13751 10.8947 9.02571 10.7829L8.29289 10.05C8.10535 9.8625 8 9.60815 8 9.34293V8.21429C8 8.05649 8.12792 7.92857 8.28571 7.92857C8.44351 7.92857 8.57143 8.05649 8.57143 8.21429V9.10864C8.57143 9.37386 8.67678 9.62821 8.86432 9.81575L9.42856 10.38C9.53925 10.4907 9.53989 10.6699 9.42999 10.7814ZM8.85714 1.64286H7.74146C7.32044 1.64286 6.96342 1.35662 6.67701 1.04804C6.36482 0.71169 5.9219 0.5 5.42857 0.5C4.93524 0.5 4.49232 0.71169 4.18013 1.04804C3.89372 1.35662 3.53669 1.64286 3.11568 1.64286H2C1.37143 1.64286 0.85714 2.15714 0.85714 2.78571V11.3571C0.85714 11.9857 1.37143 12.5 2 12.5H4.37048C4.77787 12.5 5.01087 11.9707 4.81206 11.6151C4.72616 11.4615 4.56749 11.3571 4.39148 11.3571H3C2.44771 11.3571 2 10.9094 2 10.3571V3.35714C2 3.04155 2.25583 2.78571 2.57143 2.78571C2.88702 2.78571 3.14285 3.04155 3.14285 3.35714V3.64286C3.14285 4.11624 3.52661 4.5 4 4.5H6.85714C7.33053 4.5 7.71428 4.11624 7.71428 3.64286V3.35714C7.71428 3.04155 7.97012 2.78571 8.28571 2.78571C8.6013 2.78571 8.85714 3.04155 8.85714 3.35714V5.26217C8.85714 5.50672 9.04467 5.71197 9.28155 5.77274C9.62945 5.862 10 5.6194 10 5.26023V2.78571C10 2.15714 9.48571 1.64286 8.85714 1.64286ZM5.42857 2.78571C5.11428 2.78571 4.85714 2.52857 4.85714 2.21429C4.85714 1.9 5.11428 1.64286 5.42857 1.64286C5.74285 1.64286 6 1.9 6 2.21429C6 2.52857 5.74285 2.78571 5.42857 2.78571Z" fill="#FF2222"/>
</svg>
