<svg width="12" height="18" viewBox="0 0 12 18" fill="none" xmlns="http://www.w3.org/2000/svg">
<path d="M5.99984 0.666626C2.77484 0.666626 0.166504 3.27496 0.166504 6.49996C0.166504 7.94996 0.58317 9.30829 1.3415 10.5333C2.13317 11.8166 3.17484 12.9166 3.97484 14.2C4.3665 14.825 4.64984 15.4083 4.94984 16.0833C5.1665 16.5416 5.3415 17.3333 5.99984 17.3333C6.65817 17.3333 6.83317 16.5416 7.0415 16.0833C7.34984 15.4083 7.62484 14.825 8.0165 14.2C8.81651 12.925 9.85817 11.825 10.6498 10.5333C11.4165 9.30829 11.8332 7.94996 11.8332 6.49996C11.8332 3.27496 9.22484 0.666626 5.99984 0.666626ZM5.99984 8.79163C4.84984 8.79163 3.9165 7.85829 3.9165 6.70829C3.9165 5.55829 4.84984 4.62496 5.99984 4.62496C7.14984 4.62496 8.08317 5.55829 8.08317 6.70829C8.08317 7.85829 7.14984 8.79163 5.99984 8.79163Z" fill="#A04D31"/>
</svg>
