<svg width="34" height="30" viewBox="0 0 34 30" fill="none" xmlns="http://www.w3.org/2000/svg">
<path d="M24.5 0C22.4073 0 20.3753 0.703004 18.7235 1.89607C17.725 2.61726 16.275 2.61726 15.2765 1.89607C13.6247 0.703004 11.5927 0 9.5 0C4.36667 0 0.333334 4.03333 0.333334 9.16667C0.333334 15.4667 6 20.6 14.5833 28.4L15.6541 29.3674C16.4178 30.0573 17.5803 30.0551 18.3413 29.3623L19.4167 28.3833C28 20.6 33.6667 15.4667 33.6667 9.16667C33.6667 4.03333 29.6333 0 24.5 0ZM17.1667 25.9167C17.0746 26.0087 16.9254 26.0087 16.8333 25.9167C8.9 18.7333 3.66667 13.9833 3.66667 9.16667C3.66667 5.83333 6.16667 3.33333 9.5 3.33333C11.5891 3.33333 13.634 4.4264 14.7989 6.06436C15.2778 6.73756 15.9946 7.26667 16.8207 7.26667H17.1866C18.0173 7.26667 18.737 6.73146 19.2175 6.05378C20.3749 4.4217 22.4154 3.33333 24.5 3.33333C27.8333 3.33333 30.3333 5.83333 30.3333 9.16667C30.3333 13.9833 25.1 18.7333 17.1667 25.9167Z" fill="white"/>
</svg>
