<svg width="18" height="16" viewBox="0 0 18 16" fill="none" xmlns="http://www.w3.org/2000/svg">
<path d="M7.33333 7.00016C9.17428 7.00016 10.6667 5.50778 10.6667 3.66683C10.6667 1.82588 9.17428 0.333496 7.33333 0.333496C5.49238 0.333496 4 1.82588 4 3.66683C4 5.50778 5.49238 7.00016 7.33333 7.00016Z" fill="#A04D31"/>
<path d="M7.34545 10.0617C7.38629 9.371 6.89553 8.66462 6.2086 8.74742C3.81999 9.03536 0.666664 10.1334 0.666664 12.0002V12.6669C0.666664 13.2191 1.11438 13.6669 1.66666 13.6669H6.37976C7.2442 13.6669 7.76859 12.5642 7.52775 11.734C7.35023 11.1221 7.31683 10.5457 7.34545 10.0617Z" fill="#A04D31"/>
<path d="M15.748 12.573C15.4216 12.2466 15.378 11.7427 15.5173 11.3025C15.6141 10.9965 15.6667 10.6712 15.6667 10.3333C15.6667 8.49167 14.175 7 12.3333 7C10.4917 7 9 8.49167 9 10.3333C9 12.175 10.4917 13.6667 12.3333 13.6667C12.6741 13.6667 13.0022 13.6107 13.3105 13.5113C13.7455 13.3712 14.2428 13.4178 14.5659 13.7409L15.5708 14.7458C15.8953 15.0703 16.4214 15.0703 16.7458 14.7458C17.0703 14.4214 17.0703 13.8953 16.7458 13.5708L15.748 12.573ZM12.3333 12C11.4167 12 10.6667 11.25 10.6667 10.3333C10.6667 9.41667 11.4167 8.66667 12.3333 8.66667C13.25 8.66667 14 9.41667 14 10.3333C14 11.25 13.25 12 12.3333 12Z" fill="#A04D31"/>
</svg>
