<svg width="16" height="16" viewBox="0 0 16 16" fill="none" xmlns="http://www.w3.org/2000/svg">
<path d="M13.7209 2.00421C13.6851 1.99858 13.6488 2.00336 13.6132 2.01002C13.5778 2.01666 13.5431 2.02655 13.5095 2.03956L10.3438 3.26674C10.1219 3.35275 9.87661 3.35681 9.65199 3.2782L6.32415 2.11345C6.11407 2.03992 5.88547 2.03858 5.67455 2.10964L2.24 3.26667C2.1 3.31333 2 3.43333 2 3.58667V13.6667C2 13.8348 2.11905 13.9705 2.27914 13.9958C2.31488 14.0014 2.35123 13.9966 2.3868 13.99C2.42219 13.9833 2.4569 13.9735 2.49047 13.9604L5.65622 12.7333C5.87811 12.6473 6.12339 12.6432 6.34801 12.7218L9.67585 13.8865C9.88593 13.9601 10.1145 13.9614 10.3255 13.8904L13.76 12.7333C13.9 12.6867 14 12.5667 14 12.4133V2.33333C14 2.16516 13.881 2.02945 13.7209 2.00421ZM10 11.255C10 11.9444 9.31868 12.4271 8.66825 12.1983L6.66825 11.495C6.26789 11.3542 6 10.976 6 10.5516V4.74503C6 4.05556 6.68132 3.57293 7.33175 3.80167L9.33175 4.505C9.73211 4.64579 10 5.02397 10 5.44837V11.255Z" fill="white"/>
</svg>
