<svg width="15" height="14" viewBox="0 0 15 14" fill="none" xmlns="http://www.w3.org/2000/svg">
<path d="M13.32 0H1.48C0.666 0 0 0.666 0 1.48V12.3858C0 13.2767 1.07714 13.7229 1.70711 13.0929L2.66711 12.1329C2.85464 11.9454 3.109 11.84 3.37421 11.84H13.32C14.134 11.84 14.8 11.174 14.8 10.36V1.48C14.8 0.666 14.134 0 13.32 0ZM13.32 9.36C13.32 9.91229 12.8723 10.36 12.32 10.36H3.26652C3.07026 10.36 2.88204 10.438 2.74326 10.5767C2.27709 11.0429 1.48 10.7128 1.48 10.0535V2.48C1.48 1.92772 1.92772 1.48 2.48 1.48H12.32C12.8723 1.48 13.32 1.92772 13.32 2.48V9.36Z" fill="#F85706"/>
</svg>
