<svg width="70" height="70" viewBox="0 0 70 70" fill="none" xmlns="http://www.w3.org/2000/svg">
<path d="M35 5.83337C20.5042 5.83337 8.75 17.5875 8.75 32.0834C8.75 44.1516 16.9054 54.2958 28.0019 57.3587C28.172 57.4057 28.3282 57.495 28.453 57.6198L34.2929 63.4596C34.6834 63.8501 35.3166 63.8501 35.7071 63.4596L41.547 57.6198C41.6718 57.495 41.828 57.4057 41.9981 57.3587C53.0946 54.2958 61.25 44.1516 61.25 32.0834C61.25 17.5875 49.4958 5.83337 35 5.83337ZM35 11.6667C39.8417 11.6667 43.75 15.575 43.75 20.4167C43.75 25.2584 39.8417 29.1667 35 29.1667C30.1583 29.1667 26.25 25.2584 26.25 20.4167C26.25 15.575 30.1583 11.6667 35 11.6667ZM35 53.375C27.8194 53.375 21.4591 49.7546 17.6738 44.2406C17.5594 44.074 17.4983 43.8734 17.5158 43.672C18.0031 38.0656 29.2718 35 35 35C40.6995 35 51.9959 38.0656 52.4841 43.6721C52.5017 43.8734 52.4406 44.074 52.3262 44.2406C48.5409 49.7546 42.1806 53.375 35 53.375Z" fill="#212121"/>
</svg>
