<svg width="20" height="20" viewBox="0 0 20 20" fill="none" xmlns="http://www.w3.org/2000/svg">
<path d="M10 0C4.48 0 0 4.48 0 10C0 15.52 4.48 20 10 20C15.52 20 20 15.52 20 10C20 4.48 15.52 0 10 0ZM10 3C11.66 3 13 4.34 13 6C13 7.66 11.66 9 10 9C8.34 9 7 7.66 7 6C7 4.34 8.34 3 10 3ZM10 17.2C7.61111 17.2 5.48701 16.0312 4.17739 14.2347C4.05831 14.0713 3.99215 13.8693 4.03689 13.6721C4.44405 11.8779 8.10568 10.9 10 10.9C11.8849 10.9 15.555 11.8779 15.963 13.6721C16.0079 13.8692 15.9417 14.0713 15.8226 14.2347C14.513 16.0312 12.3889 17.2 10 17.2Z" fill="#8492A6"/>
</svg>
