<svg width="16" height="17" viewBox="0 0 16 17" fill="none" xmlns="http://www.w3.org/2000/svg">
<path d="M7.99334 1.83301C4.31334 1.83301 1.33334 4.81967 1.33334 8.49967C1.33334 12.1797 4.31334 15.1663 7.99334 15.1663C11.68 15.1663 14.6667 12.1797 14.6667 8.49967C14.6667 4.81967 11.68 1.83301 7.99334 1.83301ZM8.00001 13.833C5.05334 13.833 2.66668 11.4463 2.66668 8.49967C2.66668 5.55301 5.05334 3.16634 8.00001 3.16634C10.9467 3.16634 13.3333 5.55301 13.3333 8.49967C13.3333 11.4463 10.9467 13.833 8.00001 13.833Z" fill="#A04D31"/>
<path d="M8.33334 5.66699C8.33334 5.39085 8.10949 5.16699 7.83334 5.16699C7.5572 5.16699 7.33334 5.39085 7.33334 5.66699V8.6008C7.33334 8.95206 7.51764 9.27757 7.81885 9.45829L10.4255 11.0223C10.6512 11.1577 10.9439 11.0857 11.0809 10.8609C11.2198 10.6331 11.1458 10.3357 10.9164 10.1996L8.82307 8.95756C8.51947 8.77743 8.33334 8.45057 8.33334 8.09755V5.66699Z" fill="#A04D31"/>
</svg>
