<svg width="23" height="23" viewBox="0 0 23 23" fill="none" xmlns="http://www.w3.org/2000/svg">
<path d="M16.668 14.7936C16.4804 14.6056 16.2258 14.5 15.9602 14.5H15.5331C15.4397 14.5 15.3499 14.4638 15.2827 14.399C15.1451 14.2662 15.1356 14.0497 15.2541 13.8996C16.3489 12.5134 17 10.7659 17 8.875C17 4.3875 13.3625 0.75 8.875 0.75C4.3875 0.75 0.75 4.3875 0.75 8.875C0.75 13.3625 4.3875 17 8.875 17C10.7659 17 12.5134 16.3489 13.8996 15.2541C14.0497 15.1356 14.2662 15.1451 14.399 15.2827C14.4638 15.3499 14.5 15.4397 14.5 15.5331V15.9602C14.5 16.2258 14.6056 16.4804 14.7936 16.668L20.0429 21.9068C20.4335 22.2967 21.0662 22.2964 21.4564 21.9061L21.9061 21.4564C22.2964 21.0662 22.2967 20.4335 21.9068 20.0429L16.668 14.7936ZM8.875 14.5C5.7625 14.5 3.25 11.9875 3.25 8.875C3.25 5.7625 5.7625 3.25 8.875 3.25C11.9875 3.25 14.5 5.7625 14.5 8.875C14.5 11.9875 11.9875 14.5 8.875 14.5Z" fill="black"/>
</svg>
