<svg width="24" height="24" viewBox="0 0 24 24" fill="none" xmlns="http://www.w3.org/2000/svg">
<path d="M12.4061 1.18051C12.1476 1.06559 11.8524 1.06559 11.5939 1.18051L3.59386 4.73606C3.23273 4.89656 3 5.25468 3 5.64987V11C3 16.4648 6.72298 21.5805 11.7633 22.9392C11.9182 22.9809 12.0818 22.9809 12.2367 22.9392C17.277 21.5805 21 16.4648 21 11V5.64987C21 5.25468 20.7673 4.89656 20.4061 4.73606L12.4061 1.18051ZM12 10.99C12 11.5423 12.4477 11.99 13 11.99H17.8631C18.4661 11.99 18.9349 12.5211 18.7996 13.1087C18.0662 16.2926 16.0122 19.0754 13.2584 20.4289C12.6541 20.7259 12 20.2475 12 19.5742V13C12 12.4477 11.5523 12 11 12H6C5.44772 12 5 11.5523 5 11V6.94997C5 6.55473 5.23279 6.19658 5.59398 6.0361L10.594 3.81467C11.2553 3.52088 12 4.00494 12 4.72854V10.99Z" fill="black"/>
</svg>
