<svg width="54" height="65" viewBox="0 0 54 65" fill="none" xmlns="http://www.w3.org/2000/svg">
<path d="M27.4061 0.0971319C27.1476 -0.017786 26.8524 -0.017786 26.5939 0.0971319L1.34386 11.3194C0.982734 11.4799 0.75 11.838 0.75 12.2332V29.0833C0.75 45.1856 11.8324 60.2489 26.7626 64.0243C26.9182 64.0636 27.0818 64.0636 27.2374 64.0243C42.1676 60.2489 53.25 45.1856 53.25 29.0833V12.2332C53.25 11.838 53.0173 11.4799 52.6561 11.3194L27.4061 0.0971319ZM47.4167 29.0833C47.4167 42.1561 38.8702 54.225 27.2944 57.953C27.1031 58.0146 26.8969 58.0146 26.7056 57.953C15.1298 54.225 6.58333 42.1561 6.58333 29.0833V16.0249C6.58333 15.6297 6.81612 15.2715 7.17732 15.1111L26.594 6.48451C26.8525 6.36967 27.1475 6.36967 27.406 6.48451L46.8227 15.1111C47.1839 15.2715 47.4167 15.6297 47.4167 16.0249V29.0833ZM14.3196 31.5085C13.9289 31.1193 13.2968 31.1199 12.9068 31.5099L10.2071 34.2095C9.81658 34.6 9.81658 35.2332 10.2071 35.6237L20.4596 45.8762C20.8501 46.2667 21.4832 46.2667 21.8738 45.8762L43.7954 23.9546C44.1849 23.565 44.1861 22.9338 43.7979 22.5429L41.0946 19.8204C40.7045 19.4275 40.0694 19.4264 39.6779 19.8179L21.8724 37.6234C21.4824 38.0134 20.8503 38.014 20.4596 37.6248L14.3196 31.5085Z" fill="black"/>
</svg>
