<svg width="20" height="20" viewBox="0 0 20 20" fill="none" xmlns="http://www.w3.org/2000/svg">
<path d="M9.99 0C4.47 0 0 4.47 0 10C0 15.53 4.47 20 9.99 20C15.51 20 20 15.53 20 10C20 4.47 15.52 0 9.99 0ZM10 18C5.58 18 2 14.42 2 10C2 5.58 5.58 2 10 2C14.42 2 18 5.58 18 10C18 14.42 14.42 18 10 18ZM11.53 7.41C11.2373 7.70271 11.2373 8.17729 11.53 8.47C11.8227 8.76271 12.2973 8.76271 12.59 8.47C12.8827 8.17729 13.3573 8.17729 13.65 8.47C13.9427 8.76271 14.4173 8.76271 14.71 8.47C15.0027 8.17729 15.0027 7.70271 14.71 7.41L13.8271 6.52711C13.4366 6.13658 12.8034 6.13658 12.4129 6.52711L11.53 7.41ZM6.35 8.47C6.64271 8.17729 7.11729 8.17729 7.41 8.47C7.70271 8.76271 8.17729 8.76271 8.47 8.47C8.76271 8.17729 8.76271 7.70271 8.47 7.41L7.58711 6.52711C7.19658 6.13658 6.56342 6.13658 6.17289 6.52711L5.29 7.41C4.99729 7.70271 4.99729 8.17729 5.29 8.47C5.58271 8.76271 6.05729 8.76271 6.35 8.47ZM10 15.5C11.8059 15.5 13.4016 14.6229 14.4006 13.2785C14.8208 12.7129 14.3483 12 13.6437 12H6.3563C5.65173 12 5.17923 12.7129 5.59944 13.2785C6.59837 14.6229 8.19406 15.5 10 15.5Z" fill="white"/>
</svg>
