<svg width="20" height="18" viewBox="0 0 20 18" fill="none" xmlns="http://www.w3.org/2000/svg">
<path d="M19.1162 8.18557C19.8053 7.61328 19.4522 6.49334 18.5595 6.41967L13.6823 6.01721C13.3178 5.98713 12.9987 5.76043 12.8504 5.42607L10.9148 1.06234C10.5631 0.269395 9.43765 0.269709 9.08636 1.06285L7.14979 5.4353C7.00139 5.77036 6.68162 5.99741 6.31637 6.02706L1.4485 6.42227C0.554635 6.49484 0.200791 7.6165 0.891208 8.18885L4.52455 11.2009C4.81909 11.4451 4.9485 11.8359 4.85789 12.2076L3.75608 16.7272C3.54763 17.5822 4.46566 18.2702 5.22777 17.83L9.49986 15.3626C9.80934 15.1838 10.1907 15.1838 10.5001 15.3626L14.7762 17.8323C15.5377 18.2721 16.4553 17.5855 16.2482 16.7308L15.1519 12.2062C15.062 11.8352 15.1912 11.4454 15.4849 11.2015L19.1162 8.18557ZM10.5005 13.3949C10.1908 13.2157 9.80908 13.2156 9.49933 13.3945L7.89095 14.3237C7.1287 14.7641 6.21044 14.0758 6.41925 13.2206L6.81572 11.5968C6.90644 11.2252 6.77728 10.8345 6.48298 10.5902L5.19546 9.52138C4.50635 8.94934 4.85891 7.82947 5.75144 7.75537L7.53752 7.60708C7.90268 7.57677 8.22202 7.34917 8.36982 7.01388L9.08652 5.38805C9.43695 4.59308 10.5647 4.59237 10.9161 5.3869L11.6409 7.02548C11.7889 7.36017 12.1079 7.58726 12.4727 7.61754L14.2596 7.76589C15.1521 7.83999 15.5047 8.95986 14.8156 9.5319L13.528 10.6007C13.2337 10.845 13.1046 11.2358 13.1953 11.6073L13.5912 13.2288C13.8001 14.0843 12.8811 14.7726 12.1188 14.3315L10.5005 13.3949Z" fill="#FFC82C"/>
</svg>
