<svg width="56" height="54" viewBox="0 0 56 54" fill="none" xmlns="http://www.w3.org/2000/svg">
<path d="M55.3825 21.9986C56.0498 21.4195 55.6932 20.323 54.813 20.2471L36.7955 18.6934C36.4266 18.6616 36.1055 18.4286 35.9609 18.0878L28.9214 1.50361C28.5764 0.691004 27.4246 0.691316 27.0801 1.5041L20.0396 18.1157C19.8949 18.4572 19.573 18.6905 19.2035 18.7219L1.19513 20.2497C0.313704 20.3245 -0.0437076 21.4227 0.624891 22.0019L14.3023 33.8507C14.5829 34.0937 14.7057 34.4722 14.6214 34.8337L10.5136 52.4421C10.3126 53.3035 11.2468 53.9825 12.0042 53.5254L27.4834 44.1828C27.8012 43.991 28.1991 43.991 28.5169 44.1828L44 53.5277C44.7567 53.9845 45.6905 53.3068 45.4909 52.4457L41.407 34.8324C41.3233 34.4715 41.446 34.094 41.7257 33.8513L55.3825 21.9986ZM28.5172 38.7294C28.1993 38.5371 27.801 38.537 27.4829 38.729L19.0637 43.8119C18.3062 44.2692 17.3717 43.5899 17.573 42.7283L19.8129 33.1417C19.8973 32.7804 19.7747 32.402 19.4944 32.1588L12.0508 25.7017C11.3835 25.1229 11.7396 24.0264 12.6196 23.9501L22.4412 23.098C22.8107 23.0659 23.132 22.8321 23.2762 22.4904L27.0803 13.4722C27.424 12.6576 28.578 12.6569 28.9226 13.4711L32.753 22.5206C32.8974 22.8617 33.2185 23.0951 33.5875 23.1271L43.4099 23.9793C44.2899 24.0556 44.646 25.1521 43.9787 25.7309L36.5351 32.188C36.2548 32.4312 36.1322 32.8096 36.2166 33.1709L38.4559 42.755C38.6573 43.6169 37.722 44.2962 36.9646 43.8382L28.5172 38.7294Z" fill="#212121"/>
</svg>
