<svg width="24" height="24" viewBox="0 0 24 24" fill="none" xmlns="http://www.w3.org/2000/svg">
<path d="M12 2C6.48 2 2 6.48 2 12C2 17.52 6.48 22 12 22C17.52 22 22 17.52 22 12C22 6.48 17.52 2 12 2ZM19.0537 8.233C19.3096 8.71177 19.0596 9.28563 18.558 9.49315L17.6355 9.87474C17.113 10.0909 16.5228 9.82347 16.2209 9.3454C15.8244 8.71749 15.2936 8.18452 14.6649 7.78856C14.1835 7.48539 13.9113 6.89168 14.1288 6.36601L14.5084 5.44831C14.7153 4.94813 15.2866 4.69775 15.7648 4.95139C17.1603 5.6916 18.3078 6.8379 19.0537 8.233ZM12 15C10.34 15 9 13.66 9 12C9 10.34 10.34 9 12 9C13.66 9 15 10.34 15 12C15 13.66 13.66 15 12 15ZM8.2489 4.94121C8.72575 4.68804 9.29633 4.9352 9.50576 5.43282L9.89189 6.35029C10.1139 6.8777 9.84097 7.4765 9.3562 7.78051C8.71955 8.17978 8.1804 8.71926 7.77963 9.35667C7.47704 9.83793 6.88283 10.1076 6.35819 9.88867L5.43671 9.50417C4.93735 9.2958 4.6887 8.72409 4.94261 8.24627C5.6898 6.84016 6.84247 5.68791 8.2489 4.94121ZM4.94398 15.7564C4.68938 15.2776 4.93952 14.7047 5.44061 14.4974L6.35992 14.1172C6.88411 13.9003 7.47609 14.1703 7.77753 14.6508C8.17613 15.2863 8.71162 15.8224 9.34598 16.2199C9.83088 16.5237 10.1039 17.1223 9.88189 17.6497L9.49636 18.5658C9.28668 19.0639 8.71513 19.311 8.23827 19.0565C6.83991 18.3102 5.6903 17.1598 4.94398 15.7564ZM15.767 19.0537C15.2882 19.3096 14.7144 19.0596 14.5069 18.558L14.1262 17.6378C13.9097 17.1145 14.1785 16.5233 14.6574 16.2211C15.2889 15.8227 15.8233 15.2877 16.22 14.6541C16.5237 14.1691 17.1223 13.8961 17.6497 14.1181L18.5658 14.5036C19.0639 14.7133 19.3109 15.2849 19.0565 15.7617C18.3111 17.1586 17.1633 18.3073 15.767 19.0537Z" fill="#212121"/>
</svg>
