<svg width="24" height="25" viewBox="0 0 24 25" fill="none" xmlns="http://www.w3.org/2000/svg">
<path d="M13.5 1.16992C13.5 1.16992 14.24 3.81992 14.24 5.96992C14.24 8.02992 12.89 9.69992 10.83 9.69992C8.76 9.69992 7.2 8.02992 7.2 5.96992L7.23 5.60992C5.21 8.00992 4 11.1199 4 14.4999C4 18.9199 7.58 22.4999 12 22.4999C16.42 22.4999 20 18.9199 20 14.4999C20 9.10992 17.41 4.29992 13.5 1.16992ZM11.71 19.4999C9.93 19.4999 8.49 18.0999 8.49 16.3599C8.49 14.7399 9.54 13.5999 11.3 13.2399C13.07 12.8799 14.9 12.0299 15.92 10.6599C16.31 11.9499 16.51 13.3099 16.51 14.6999C16.51 17.3499 14.36 19.4999 11.71 19.4999Z" fill="#A04D31"/>
</svg>
