<svg width="40" height="40" viewBox="0 0 40 40" fill="none" xmlns="http://www.w3.org/2000/svg">
<path d="M22.5 1.11621C22.5 1.11621 23.7333 5.53288 23.7333 9.11621C23.7333 12.5495 21.4833 15.3329 18.05 15.3329C14.6 15.3329 12 12.5495 12 9.11621L12.05 8.51621C8.68332 12.5162 6.66666 17.6995 6.66666 23.3329C6.66666 30.6996 12.6333 36.6662 20 36.6662C27.3667 36.6662 33.3333 30.6996 33.3333 23.3329C33.3333 14.3495 29.0167 6.33288 22.5 1.11621ZM19.5167 31.6662C16.55 31.6662 14.15 29.3329 14.15 26.4329C14.15 23.7329 15.9 21.8329 18.8333 21.2329C21.7833 20.6329 24.8333 19.2162 26.5333 16.9329C27.1833 19.0829 27.5167 21.3496 27.5167 23.6662C27.5167 28.0829 23.9333 31.6662 19.5167 31.6662Z" fill="#A04D31"/>
</svg>
